# xmcd
#
# Track frame offsets:
#	150
#	12904
#	28667
#	41908
#	51864
#	64918
#	80250
#	94237
#	108233
#	124896
#	137664
#	151243
#	167222
#	179287
#	193100
#
# Disc length: 2741
#
# Revision: 1
# Processed by: cddbd v1.5.1PL0 Copyright (c) Steve Scherf et al.
# Submitted via: CDex 1.51
# Normalized: r0:DSETVAR1
#
DISCID=cb0ab30f
DTITLE=Various Artist - Die schönsten deutschen Country- and Trucker-Songs
DYEAR=1997
DGENRE=Country
TTITLE0=Mike Herman and Booze Company - Verliebt in Country
TTITLE1=Johnny Hill - Immer und ewig und eine Nacht
TTITLE2=Dagmar - Lass mich damit bloss in Ruhe
TTITLE3=Gudrun Lange and Kactus - Ich tanz im Regen
TTITLE4=Linda Feller - Ich weiss genau was ich will
TTITLE5=Joe Hodgkins and Boss Band - Nimm die Zeit für deine Freunde
TTITLE6=Hanna and Daana - It's CountryTime in Germany
TTITLE7=Tom Astor - Ich bin kein Dichter, kein Poet
TTITLE8=Western Union - Danke
TTITLE9=Greyhounds - Typen mit dem Cowboyhut
TTITLE10=Johnny Hill - Alles gehabt und alles verloren
TTITLE11=Linda Feller - Spiel mir noch einmal das Lied
TTITLE12=Tex Harper - Und dann stehst du wieder mal im Stau
TTITLE13=Joe Hodgkins and Boss Band - Papa ich möcht Trucker werden
TTITLE14=Max Zwo - Gibt's koane Mad'ln zum heirat'n mehr
EXTD=YEAR: 1997
EXTT0=
EXTT1=
EXTT2=
EXTT3=
EXTT4=
EXTT5=
EXTT6=
EXTT7=
EXTT8=
EXTT9=
EXTT10=
EXTT11=
EXTT12=
EXTT13=
EXTT14=
PLAYORDER=
